<?xml version="1.0" encoding="utf-8"?>
<!-- Generator: Adobe Illustrator 16.0.0, SVG Export Plug-In . SVG Version: 6.00 Build 0)  -->
<!DOCTYPE svg PUBLIC "-//W3C//DTD SVG 1.1//EN" "http://www.w3.org/Graphics/SVG/1.1/DTD/svg11.dtd">
<svg version="1.1" id="Base" xmlns="http://www.w3.org/2000/svg" xmlns:xlink="http://www.w3.org/1999/xlink" x="0px" y="0px"
	 width="160px" height="160px" viewBox="0 0 160 160" enable-background="new 0 0 160 160" xml:space="preserve">
<g>
	<defs>
		<circle id="SVGID_1_" cx="80.124" cy="79.485" r="73.5"/>
	</defs>
	<clipPath id="SVGID_2_">
		<use xlink:href="#SVGID_1_"  overflow="visible"/>
	</clipPath>
	<polyline clip-path="url(#SVGID_2_)" fill="#FFFFFF" stroke="#8E8D8D" stroke-miterlimit="10" points="122.332,65.004
		100.286,75.029 96.993,64.881 93.766,54.931 	"/>
	<polyline clip-path="url(#SVGID_2_)" fill="#FFFFFF" stroke="#8E8D8D" stroke-miterlimit="10" points="122.332,65.004
		100.286,75.029 96.993,64.881 93.766,54.931 	"/>
	<polyline clip-path="url(#SVGID_2_)" fill="#FFFFFF" stroke="#8E8D8D" stroke-miterlimit="10" points="122.332,65.004
		100.286,75.029 96.993,64.881 93.766,54.931 	"/>
	<polyline clip-path="url(#SVGID_2_)" fill="#FFFFFF" stroke="#8E8D8D" stroke-miterlimit="10" points="122.332,65.004
		100.286,75.029 96.993,64.881 93.766,54.931 	"/>
	<polyline clip-path="url(#SVGID_2_)" fill="#FFFFFF" stroke="#8E8D8D" stroke-miterlimit="10" points="122.332,65.004
		100.286,75.029 96.993,64.881 93.766,54.931 	"/>
	<polyline clip-path="url(#SVGID_2_)" fill="#FFFFFF" stroke="#8E8D8D" stroke-miterlimit="10" points="122.332,65.004
		100.286,75.029 96.993,64.881 93.766,54.931 	"/>
	<polyline clip-path="url(#SVGID_2_)" fill="#FFFFFF" stroke="#8E8D8D" stroke-miterlimit="10" points="122.332,65.004
		100.286,75.029 96.993,64.881 93.766,54.931 	"/>
	<polyline clip-path="url(#SVGID_2_)" fill="#FFFFFF" stroke="#8E8D8D" stroke-miterlimit="10" points="122.332,65.004
		100.286,75.029 96.993,64.881 93.766,54.931 	"/>
	<polyline clip-path="url(#SVGID_2_)" fill="#FFFFFF" stroke="#8E8D8D" stroke-miterlimit="10" points="122.332,65.004
		100.286,75.029 96.993,64.881 93.766,54.931 	"/>
	<polyline clip-path="url(#SVGID_2_)" fill="#FFFFFF" stroke="#8E8D8D" stroke-miterlimit="10" points="122.332,65.004
		100.286,75.029 96.993,64.881 93.766,54.931 	"/>
	<polyline clip-path="url(#SVGID_2_)" fill="#FFFFFF" stroke="#8E8D8D" stroke-miterlimit="10" points="122.332,65.004
		100.286,75.029 96.993,64.881 93.766,54.931 	"/>
	<polyline clip-path="url(#SVGID_2_)" fill="#FFFFFF" stroke="#8E8D8D" stroke-miterlimit="10" points="122.332,65.004
		100.286,75.029 96.993,64.881 93.766,54.931 	"/>
	<polyline clip-path="url(#SVGID_2_)" fill="#FFFFFF" stroke="#8E8D8D" stroke-miterlimit="10" points="122.332,65.004
		100.286,75.029 96.993,64.881 93.766,54.931 	"/>
	<circle clip-path="url(#SVGID_2_)" fill="#232426" stroke="#000000" stroke-miterlimit="10" cx="80.607" cy="79.839" r="80"/>
	<circle clip-path="url(#SVGID_2_)" fill="#0C88C6" stroke="#000000" stroke-miterlimit="10" cx="80.124" cy="79.485" r="73.5"/>
	<polyline clip-path="url(#SVGID_2_)" fill="#FFFFFF" stroke="#8E8D8D" stroke-miterlimit="10" points="122.332,65.004
		100.286,75.029 96.993,64.881 93.766,54.931 	"/>

		<ellipse clip-path="url(#SVGID_2_)" fill="#FCCEB9" stroke="#000000" stroke-miterlimit="10" cx="85.564" cy="136.233" rx="37.435" ry="40.101"/>
	<path clip-path="url(#SVGID_2_)" fill="#562A19" stroke="#261009" stroke-width="2" stroke-miterlimit="10" d="M87,154
		c0-2.478-1.763-4.368-4.039-4.871c-0.06-0.036-0.121-0.071-0.18-0.109c-0.197-0.181-0.39-0.365-0.579-0.555
		c-0.552-0.551-1.214-0.926-1.917-1.162c0.023-0.207,0.047-0.413,0.047-0.636v-21.334c0-4.131-4.102-5.61-7.052-4.449
		c-1.867-1.444-4.82-1.387-6.65,0.152c-0.204-0.022-0.414-0.036-0.632-0.036c-4.495,0-5.853,4.856-4.081,7.801
		c-0.821,0.777-1.417,1.843-1.585,3.199c-1.508,12.148,5.85,31.79,20.333,31.667c3.653-0.031,5.235-3.255,4.749-6.034
		C86.384,156.69,87,155.367,87,154z"/>
	<path clip-path="url(#SVGID_2_)" fill="#292A2B" stroke="#000000" stroke-width="2" stroke-miterlimit="10" d="M121.456,36.61
		c-0.326,3.816-3.492,11.083-3.501,14.912c-0.036,14.985,13.417,58.421,13.417,58.421c0.889,6.569-3.714,12.611-10.284,13.499
		c0,0-30.492-2.672-40.48-1.021c-7.332,1.211-27.897,10.267-27.897,10.267c-6.57,0.889-12.611-3.713-13.5-10.283
		c0,0-0.089-27.99-1.329-37.156c-0.356-2.633,0.309-11.095-0.362-14.712c-1.047-5.65-6.635-15.941-8.225-21.464
		c-1.309-4.547,1.529-9.109,5.208-11.579c1.476-0.99,3.195-1.667,5.076-1.921l33.916,0.559l34.461-9.804
		C114.526,25.438,122.022,30.005,121.456,36.61z"/>
	<path clip-path="url(#SVGID_2_)" fill="#A81A16" stroke="#000000" stroke-miterlimit="10" d="M109.526,31.442
		c0.559,3.307-20.124,12.195-39.267,15.429c-19.144,3.234-31.722,1.185-32.28-2.123c-0.317-1.879,1.657-1.732,0,0
		c-0.521,0.545,54.158-9.157,29.999-4.93c-27.241,4.766,45.263-7.578,41.269-10.032C107.551,28.745,109.247,29.787,109.526,31.442z"
		/>
	<path clip-path="url(#SVGID_2_)" fill="#F9CF1E" stroke="#7A5C11" stroke-miterlimit="10" d="M80.07,134.33
		c-0.405-4.504-0.75-8.723-0.246-13.231c0.985-3.033,1.877-6.006,2.737-8.88c0.859-2.875-3.931-4.306-4.791-1.432
		c-2.005,6.706-4.01,13.408-6.773,19.851c-1.048,2.442,2.095,3.615,3.92,2.353c0.037,0.451,0.093,0.842,0.134,1.294
		C75.337,137.453,80.359,137.544,80.07,134.33z"/>
	<path clip-path="url(#SVGID_2_)" fill="#F9CF1E" stroke="#7A5C11" stroke-miterlimit="10" d="M95.706,131.924
		c-2.645-3.667-5.093-7.12-6.958-11.257c-0.7-3.111-1.447-6.123-2.174-9.034s-5.577-1.699-4.852,1.212
		c1.695,6.791,3.389,13.578,4.296,20.529c0.345,2.635,3.646,2.042,4.572,0.025c0.263,0.369,0.51,0.677,0.775,1.044
		C93.227,137.025,97.593,134.542,95.706,131.924z"/>
	<path clip-path="url(#SVGID_2_)" fill="#F9CF1E" stroke="#7A5C11" stroke-miterlimit="10" d="M83.292,95.4
		c-1.678-4.199-3.216-8.143-4.023-12.607c0.075-3.188,0.08-6.292,0.08-9.292s-5-3-5,0c-0.001,7-0.003,13.995-0.807,20.959
		c-0.305,2.64,3.042,2.864,4.43,1.132c0.165,0.422,0.33,0.78,0.499,1.201C79.651,99.748,84.489,98.397,83.292,95.4z"/>
	<circle clip-path="url(#SVGID_2_)" fill="#F9CF1E" stroke="#7A5C11" stroke-miterlimit="10" cx="80.478" cy="106.178" r="12.5"/>
	<polyline clip-path="url(#SVGID_2_)" fill="#FFFFFF" stroke="#8E8D8D" stroke-miterlimit="10" points="122.332,65.004
		100.286,75.029 96.993,64.881 93.766,54.931 	"/>
	<polyline clip-path="url(#SVGID_2_)" fill="#FFFFFF" stroke="#8E8D8D" stroke-miterlimit="10" points="122.332,65.004
		100.286,75.029 96.993,64.881 93.766,54.931 	"/>
	<path clip-path="url(#SVGID_2_)" fill="#E2E1E0" stroke="#191408" stroke-miterlimit="10" d="M95.984,70.268
		c-0.396,4.504-0.801,8.717-2.094,13.067c-1.505,2.812-2.908,5.58-4.262,8.258c-1.353,2.678,3.109,4.932,4.464,2.254
		c3.157-6.246,6.312-12.49,10.17-18.343c1.462-2.219-1.423-3.928-3.443-3.008c0.043-0.451,0.057-0.845,0.096-1.297
		C101.194,68.028,96.267,67.052,95.984,70.268z"/>
	<g clip-path="url(#SVGID_2_)">
		<path fill="#F9CF1E" d="M125.751,90.808c-10.036,1.109-19.911-4.777-27.77-10.358c-7.489-5.318-17.685-14.368-18.843-24.157
			c-0.395-3.771-4.088-5.324-6.88-4.618c-1.93,0.462-3.431,1.995-3.12,4.618c1.653,15.812-16.502,31-31.291,32.097
			c-6.39,0.474-6.437,10.478,0,10c14.478-1.073,31.103-11.646,38.077-25.671c3.857,5.379,8.869,10.067,13.923,14.035
			c9.704,7.621,23.033,15.479,35.903,14.056C132.088,100.108,132.157,90.1,125.751,90.808z"/>
		<g>
			<path fill="#7A5C11" d="M125.751,90.058c-11.883,0.863-22.607-6.273-31.522-13.392c-4.204-3.358-7.983-7.246-10.971-11.729
				c-1.527-2.294-2.54-4.847-3.183-7.514c-0.332-1.375-0.271-2.926-1.254-4.073c-2.429-2.834-10.333-4.141-10.412,1.499
				c-0.075,5.419-0.458,9.754-3.086,14.648c-2.535,4.718-6.588,8.563-10.875,11.677c-3.582,2.602-7.668,4.456-11.914,5.659
				c-2.999,0.85-6.085,0.396-8.535,2.533c-2.709,2.364-2.243,8.707,1.744,9.544c7.264,1.525,16.391-3.108,22.449-6.657
				c7.725-4.526,14.241-11.224,18.38-19.157c-0.432,0-0.863,0-1.295,0c9.553,12.868,26.059,26.047,42.407,28.229
				c4.987,0.666,11.243,1.437,13.326-4.18C132.438,93.301,129.512,89.975,125.751,90.058c-0.966,0.021-0.968,1.521,0,1.5
				c3.137-0.069,4.41,2.436,3.813,5.188c-0.852,3.934-5.645,3.523-8.653,3.429c-6.49-0.204-12.811-2.912-18.454-5.898
				c-9.9-5.24-19.202-12.937-25.885-21.938c-0.312-0.42-1.01-0.546-1.295,0c-3.869,7.414-9.644,13.235-16.58,17.831
				c-3.92,2.598-21.84,12.228-24.703,4.998c-2.071-5.231,4.341-5.94,7.704-6.594c3.078-0.598,6.005-1.861,8.799-3.249
				c5.877-2.919,10.901-7.499,14.7-12.803c3.382-4.722,5.103-10.445,4.691-16.23c0.872-3.881,2.982-4.995,6.331-3.34
				c1.481,1.37,2.285,2.993,2.409,4.87c0.221,1.379,0.732,2.835,1.32,4.098c1.489,3.196,3.438,5.977,5.707,8.659
				c9.223,10.902,25.32,22.053,40.096,20.98C126.71,91.489,126.717,89.988,125.751,90.058z"/>
		</g>
	</g>
	<path clip-path="url(#SVGID_2_)" fill="#A81A16" stroke="#000000" stroke-miterlimit="10" d="M37.815,93.646"/>
	<path clip-path="url(#SVGID_2_)" fill="#A81A16" stroke="#000000" stroke-miterlimit="10" d="M72.259,51.674"/>
	<polyline clip-path="url(#SVGID_2_)" fill="#FFFFFF" stroke="#8E8D8D" stroke-miterlimit="10" points="122.332,65.004
		100.286,75.029 96.993,64.881 93.766,54.931 	"/>
	<circle clip-path="url(#SVGID_2_)" fill="#FFFFFF" stroke="#000000" stroke-miterlimit="10" cx="88.909" cy="58.549" r="10"/>
	<circle clip-path="url(#SVGID_2_)" fill="#A81A16" stroke="#000000" stroke-miterlimit="10" cx="89.444" cy="58.646" r="7.5"/>
	<circle clip-path="url(#SVGID_2_)" fill="#0D2DCE" stroke="#000000" stroke-miterlimit="10" cx="89.978" cy="58.613" r="5"/>
	<g clip-path="url(#SVGID_2_)">
		<circle fill="#F9CF1E" cx="80.108" cy="105.976" r="10"/>
		<circle fill="none" stroke="#7A5C11" stroke-miterlimit="10" stroke-dasharray="3.1407,3.1407" cx="80.108" cy="105.976" r="10"/>
	</g>
	<g clip-path="url(#SVGID_2_)">
		<circle fill="#F9CF1E" cx="80.108" cy="105.976" r="7"/>
		<circle fill="none" stroke="#7A5C11" stroke-miterlimit="10" stroke-dasharray="3.137,3.137" cx="80.108" cy="105.976" r="7"/>
	</g>
	<g clip-path="url(#SVGID_2_)">
		<circle fill="#F9CF1E" cx="80.108" cy="105.977" r="3.43"/>

			<circle fill="none" stroke="#7A5C11" stroke-miterlimit="10" stroke-dasharray="2.6899,2.6899" cx="80.108" cy="105.977" r="3.43"/>
	</g>
	<polyline clip-path="url(#SVGID_2_)" fill="#FFFFFF" stroke="#8E8D8D" stroke-miterlimit="10" points="122.332,65.004
		100.286,75.029 96.993,64.881 93.766,54.931 	"/>
	<polyline clip-path="url(#SVGID_2_)" fill="#FFFFFF" stroke="#8E8D8D" stroke-miterlimit="10" points="122.332,65.004
		100.286,75.029 96.993,64.881 93.766,54.931 	"/>
	<polyline clip-path="url(#SVGID_2_)" fill="#FFFFFF" stroke="#8E8D8D" stroke-miterlimit="10" points="122.54,59.742
		103.427,74.616 97.866,65.511 92.416,56.583 	"/>
	<polyline clip-path="url(#SVGID_2_)" fill="#FFFFFF" stroke="#8E8D8D" stroke-miterlimit="10" points="123.559,57.377
		103.791,71.367 98.648,62.018 93.61,52.852 	"/>
	<polyline clip-path="url(#SVGID_2_)" fill="#A81A16" stroke="#000000" stroke-miterlimit="10" points="123.478,50.984
		105.204,66.876 99.155,58.087 93.227,49.469 	"/>
	<polyline clip-path="url(#SVGID_2_)" fill="#A81A16" stroke="#000000" stroke-miterlimit="10" points="124.478,45.984
		106.204,61.876 100.155,53.087 94.227,44.469 	"/>
	<polyline clip-path="url(#SVGID_2_)" fill="#A81A16" stroke="#000000" stroke-miterlimit="10" points="124.478,40.984
		106.204,56.876 100.155,48.087 94.227,39.469 	"/>
	<polyline clip-path="url(#SVGID_2_)" fill="#A81A16" stroke="#000000" stroke-miterlimit="10" points="124.478,35.984
		106.204,51.876 100.155,43.087 94.227,34.469 	"/>
	<polyline clip-path="url(#SVGID_2_)" fill="#A81A16" stroke="#000000" stroke-miterlimit="10" points="126.882,28.751
		106.126,47.54 98.601,36.396 91.227,25.469 	"/>
	<polyline clip-path="url(#SVGID_2_)" fill="#A81A16" stroke="#000000" stroke-miterlimit="10" points="131.101,20.495
		106.708,43.13 97.374,29.164 88.227,15.469 	"/>
	<polyline clip-path="url(#SVGID_2_)" fill="#A81A16" stroke="#000000" stroke-miterlimit="10" points="136.296,9.326
		106.543,36.806 95.271,19.974 84.227,3.469 	"/>
	<polyline clip-path="url(#SVGID_2_)" fill="#A81A16" stroke="#000000" stroke-miterlimit="10" points="136.296,0.326
		106.543,27.806 95.271,10.974 84.227,-5.531 	"/>
	<polyline clip-path="url(#SVGID_2_)" fill="#A81A16" stroke="#000000" stroke-miterlimit="10" points="136.296,-10.674
		106.543,16.806 95.271,-0.026 84.227,-16.531 	"/>
	<path clip-path="url(#SVGID_2_)" fill="#FFFFFF" stroke="#000000" stroke-width="3" stroke-miterlimit="10" d="M116.833,131
		c-6,0-6,10,0,10C123.833,141,123.833,131,116.833,131z"/>
	<path clip-path="url(#SVGID_2_)" fill="#562A19" stroke="#261009" stroke-miterlimit="10" d="M122.666,127.5
		c-5.925,0.621-13.659,0.704-16-6c0.515,1.473-0.522,3.504,0,5c2.341,6.704,10.075,6.621,16,6
		C122.875,132.478,122.53,127.515,122.666,127.5z"/>
</g>
<circle fill="none" stroke="#010207" stroke-width="10" stroke-miterlimit="10" cx="79.833" cy="80" r="74.9"/>
</svg>
